HIERARCHY
ROOT SpineBase
{
  OFFSET 0.000000 0.000000 0.000000
  CHANNELS 6 Xposition Yposition Zposition Zrotation Xrotation Yrotation
  JOINT SpineMid
  {
    OFFSET 0.000000 31.089194 0.000000
    CHANNELS 3 Zrotation Xrotation Yrotation
    JOINT SpineShoulder
    {
      OFFSET 0.063149 23.049415 -0.754679
      CHANNELS 3 Zrotation Xrotation Yrotation
      JOINT Neck
      {
        OFFSET 0.043099 7.614171 -0.572491
        CHANNELS 3 Zrotation Xrotation Yrotation
        JOINT Head
        {
          OFFSET -4.034266 13.175159 -0.832948
          CHANNELS 3 Zrotation Xrotation Yrotation
          End Site
          {
            OFFSET 0 0 0
          }
        }
      }
      JOINT ShoulderLeft
      {
        OFFSET -16.365793 -3.885195 9.220428
        CHANNELS 3 Zrotation Xrotation Yrotation
        JOINT ElbowLeft
        {
          OFFSET -3.489920 -19.072725 -1.697543
          CHANNELS 3 Zrotation Xrotation Yrotation
          JOINT WristLeft
          {
            OFFSET 14.749844 -3.100985 -22.356554
            CHANNELS 3 Zrotation Xrotation Yrotation
            JOINT HandLeft
            {
              OFFSET -1.743552 -0.798690 -7.516293
              CHANNELS 3 Zrotation Xrotation Yrotation
              JOINT HandTipLeft
              {
                OFFSET -2.254049 0.650783 -2.704320
                CHANNELS 3 Zrotation Xrotation Yrotation
                End Site
                {
                  OFFSET 0 0 0
                }
              }
              JOINT ThumbLeft
              {
                OFFSET 3.207127 -1.079112 0.369112
                CHANNELS 3 Zrotation Xrotation Yrotation
                End Site
                {
                  OFFSET 0 0 0
                }
              }
            }
          }
        }
      }
      JOINT ShoulderRight
      {
        OFFSET 12.969477 -2.789397 -7.730342
        CHANNELS 3 Zrotation Xrotation Yrotation
        JOINT ElbowRight
        {
          OFFSET 5.281186 -21.165478 -5.947443
          CHANNELS 3 Zrotation Xrotation Yrotation
          JOINT WristRight
          {
            OFFSET -22.113919 -4.498416 -7.640471
            CHANNELS 3 Zrotation Xrotation Yrotation
            JOINT HandRight
            {
              OFFSET -9.383362 2.048014 -2.670731
              CHANNELS 3 Zrotation Xrotation Yrotation
              JOINT HandTipRight
              {
                OFFSET -7.524324 0.455646 0.758544
                CHANNELS 3 Zrotation Xrotation Yrotation
                End Site
                {
                  OFFSET 0 0 0
                }
              }
              JOINT ThumbRight
              {
                OFFSET -6.440584 -2.177362 -0.172483
                CHANNELS 3 Zrotation Xrotation Yrotation
                End Site
                {
                  OFFSET 0 0 0
                }
              }
            }
          }
        }
      }
    }
  }
  JOINT HipLeft
  {
    OFFSET -6.419399 -0.347230 -0.056680
    CHANNELS 3 Zrotation Xrotation Yrotation
    JOINT KneeLeft
    {
      OFFSET 4.551280 -37.035665 5.950396
      CHANNELS 3 Zrotation Xrotation Yrotation
      JOINT AnkleLeft
      {
        OFFSET 9.206037 -34.599569 9.542255
        CHANNELS 3 Zrotation Xrotation Yrotation
        JOINT FootLeft
        {
          OFFSET -2.228035 -7.387815 -6.414874
          CHANNELS 3 Zrotation Xrotation Yrotation
          End Site
          {
            OFFSET 0 0 0
          }
        }
      }
    }
  }
  JOINT HipRight
  {
    OFFSET 6.791468 1.794349 -7.029874
    CHANNELS 3 Zrotation Xrotation Yrotation
    JOINT KneeRight
    {
      OFFSET 7.949316 -35.427628 -0.382874
      CHANNELS 3 Zrotation Xrotation Yrotation
      JOINT AnkleRight
      {
        OFFSET 7.953802 -37.733371 10.371272
        CHANNELS 3 Zrotation Xrotation Yrotation
        JOINT FootRight
        {
          OFFSET -2.475076 -7.855257 -3.741306
          CHANNELS 3 Zrotation Xrotation Yrotation
          End Site
          {
            OFFSET 0 0 0
          }
        }
      }
    }
  }
}
MOTION
Frames: 6
Frame Time: 0.033333
-18.195494 80.706375 348.154044 -0.000000 0.000000 27.826781 -0.000000 0.000000 -27.826781 -0.000000 0.000000 0.000000 -0.000000 0.000000 0.000000 0.000000 0.000000 0.000000 -0.000000 0.000000 0.000000 -0.000000 0.000000 0.000000 -0.000000 0.000000 0.000000 -0.000000 0.000000 0.000000 0.000000 0.000000 0.000000 0.000000 0.000000 0.000000 -0.000000 0.000000 0.000000 -0.000000 0.000000 0.000000 -0.000000 0.000000 0.000000 -0.000000 0.000000 0.000000 0.000000 0.000000 0.000000 0.000000 0.000000 0.000000 -0.000000 0.000000 -27.826781 -0.000000 0.000000 0.000000 -0.000000 0.000000 0.000000 0.000000 0.000000 0.000000 -0.000000 0.000000 -27.826781 -0.000000 0.000000 0.000000 -0.000000 0.000000 0.000000 0.000000 0.000000 0.000000
-18.003701 80.837658 347.495945 -0.030425 0.066696 27.933162 -0.004363 -0.073178 -27.933147 -0.000000 0.000000 0.000000 -0.539725 1.928791 0.567036 0.000000 0.000000 0.000000 -0.869571 -1.763272 0.386674 0.250504 1.357906 2.354177 -0.069037 2.519090 -0.134978 2.631887 -11.175337 -17.696145 0.000000 0.000000 0.000000 0.000000 0.000000 0.000000 -0.000000 0.000000 0.000000 -1.125743 0.417625 -0.129739 2.431555 -0.675984 0.614651 -1.472793 0.151975 -2.276184 0.000000 0.000000 0.000000 0.000000 0.000000 0.000000 -0.004363 -0.073178 -27.933147 -0.000000 0.000000 0.000000 -0.000000 0.000000 0.000000 0.000000 0.000000 0.000000 -0.911655 -0.212497 -28.050612 0.735233 0.549576 0.111677 3.321085 3.218805 -2.678148 0.000000 0.000000 0.000000
-17.809075 80.950236 346.898165 -0.064235 0.123322 27.964501 -0.001094 -0.139044 -27.964433 -0.000000 0.000000 0.000000 -1.020291 3.691084 1.104207 0.000000 0.000000 0.000000 -1.662416 -3.358438 0.713892 0.555309 2.609130 4.418711 0.122773 4.170938 -0.829243 1.648201 -20.440457 -34.277061 0.000000 0.000000 0.000000 0.000000 0.000000 0.000000 0.017400 -1.359920 -0.345161 -1.960552 2.074907 0.129106 4.357014 -1.131684 1.419470 -2.658950 0.263140 -4.331701 0.000000 0.000000 0.000000 0.000000 0.000000 0.000000 -0.872127 -0.586674 -28.158509 0.556766 0.805648 0.184645 -0.802701 0.046503 0.681614 0.000000 0.000000 0.000000 -1.708085 -0.428322 -28.195648 1.919332 0.435770 0.221490 5.350639 6.123432 -4.871893 0.000000 0.000000 0.000000
-17.611615 81.044108 346.360706 -0.101400 0.169860 27.921982 0.010056 -0.197568 -27.921814 -0.000000 0.000000 0.000000 -1.433800 5.276452 1.602932 0.000000 0.000000 0.000000 -2.379655 -4.777841 0.987182 0.901826 3.756434 6.193644 0.479218 5.057264 -1.976241 -1.501725 -26.155263 -48.530178 0.000000 0.000000 0.000000 0.000000 0.000000 0.000000 0.125455 -1.890395 -0.507124 -2.608311 2.810044 0.188075 5.756372 -1.367113 2.397996 -3.492239 0.311164 -6.151301 0.000000 0.000000 0.000000 0.000000 0.000000 0.000000 -1.249643 -0.809566 -28.204421 0.821080 1.134531 0.263405 -1.101963 -0.178704 1.007461 0.000000 0.000000 0.000000 -2.384931 -0.650897 -28.261839 2.617792 0.656504 0.294914 6.975644 7.851541 -6.401991 0.000000 0.000000 0.000000
-17.411321 81.119274 345.883567 -0.141888 0.206305 27.806162 0.029268 -0.248671 -27.805843 -0.000000 0.000000 0.000000 -1.773024 6.677378 2.055388 0.000000 0.000000 0.000000 -3.022452 -6.016100 1.211818 1.278904 4.802397 7.683896 0.925189 5.225937 -3.520434 -5.077577 -28.443174 -59.722741 0.000000 0.000000 0.000000 0.000000 0.000000 0.000000 0.300485 -2.316956 -0.659873 -3.074921 3.356693 0.221943 6.601008 -1.386849 3.528120 -3.917540 0.274443 -7.712374 0.000000 0.000000 0.000000 0.000000 0.000000 0.000000 -1.588596 -0.988757 -28.170673 1.077210 1.415883 0.334048 -1.332659 -0.571043 1.323809 0.000000 0.000000 0.000000 -2.938511 -0.882665 -28.248595 3.140975 0.873381 0.347755 7.879098 8.850103 -7.265123 0.000000 0.000000 0.000000
-17.208193 81.175735 345.466748 -0.185660 0.232664 27.616988 0.056655 -0.292220 -27.616466 -0.000000 0.000000 0.000000 -2.031560 7.888806 2.454694 0.000000 0.000000 0.000000 -3.591926 -7.069614 1.392682 1.677342 5.749575 8.896730 1.402011 4.673003 -5.457454 -8.061071 -28.086500 -67.755680 0.000000 0.000000 0.000000 0.000000 0.000000 0.000000 0.542175 -2.637708 -0.802373 -3.373669 3.720135 0.219540 6.864434 -1.203029 4.782580 -3.897549 0.134310 -8.981875 0.000000 0.000000 0.000000 0.000000 0.000000 0.000000 -1.889615 -1.126107 -28.056833 1.325966 1.650754 0.397171 -1.493713 -1.133507 1.631642 0.000000 0.000000 0.000000 -3.365745 -1.125078 -28.154754 3.488025 1.083160 0.382762 8.061294 9.185772 -7.444432 0.000000 0.000000 0.000000
